<svg xmlns="http://www.w3.org/2000/svg"
     viewBox="0 0 1672 941"
     preserveAspectRatio="none"
     aria-hidden="true">
  <!--
    Native SVG silhouettes aligned to the live cottage room artwork.
    Each data-hotspot-key exactly matches the existing project object name.
    The user's outlined reference was used to refine these shapes, but native
    paths are used so hover rendering does not depend on external PNG masks.
  -->
  <g class="cottage-outline-shapes">
    <path data-hotspot-key="Fireplace" class="hotspot-silhouette"
          d="M152 0 L433 0 L438 47 L461 65 L461 145
             L481 176 L481 244 L500 267 L500 292 L515 310
             L515 428 L543 446 L543 479 L502 499 L218 499
             L189 482 L189 459 L206 443 L206 313 L190 294
             L190 228 L171 205 L171 109 L153 84 Z"/>

    <path data-hotspot-key="Television" class="hotspot-silhouette"
          d="M710 159 L855 146 L866 159 L866 250
             L846 268 L909 284 L916 301 L916 390
             L896 411 L684 425 L649 406 L649 291
             L685 272 L710 268 Z"/>

    <path data-hotspot-key="Bookshelf" class="hotspot-silhouette"
          d="M964 0 L1248 0 L1250 29 L1269 47
             L1266 276 L1254 300 L1254 388 L1238 422
             L1187 432 L1105 419 L1011 405 L972 392
             L950 370 L950 286 L942 265 L947 49 Z"/>

    <path data-hotspot-key="Armchair" class="hotspot-silhouette"
          d="M1304 317 C1344 301 1422 302 1465 320
             C1499 334 1518 362 1518 394
             C1543 406 1555 430 1554 459
             L1551 512 L1532 540 L1497 552
             L1454 545 L1419 531 L1381 534
             L1346 543 L1314 529 L1291 501
             L1287 439 L1302 407
             C1292 372 1293 340 1304 317 Z"/>

    <path data-hotspot-key="Coffee table" class="hotspot-silhouette"
          d="M806 454 L988 423 L1094 482 L1092 520
             L1069 538 L1046 544 L1045 597
             L1022 614 L990 606 L984 561
             L839 588 L834 631 L802 634 L789 607
             L794 579 L764 559 L763 486 Z"/>

    <path data-hotspot-key="Cottage sofa" class="hotspot-silhouette"
          d="M1201 493 C1264 481 1342 493 1388 520
             C1421 540 1449 574 1455 611
             L1452 683 L1434 719 L1403 739
             L1360 746 L1320 734 L1309 771
             L1272 797 L1191 812 L1150 852
             L1069 877 L997 892 L945 879
             L904 851 L874 825 L840 808
             L818 774 L810 725 L818 682
             L841 653 L877 638 L928 634
             L1017 593 L1109 549 Z"/>

    <path data-hotspot-key="Pet bed" class="hotspot-silhouette"
          d="M271 631 C325 613 411 618 457 643
             C489 661 502 694 494 732
             C486 775 452 803 403 814
             C347 826 279 816 243 787
             C215 764 208 723 220 687
             C229 660 248 640 271 631 Z"/>

    <path data-hotspot-key="Indoor plants" class="hotspot-silhouette"
          d="M0 335
             C29 332 56 343 72 364
             C89 386 93 414 82 439
             C109 445 129 463 136 488
             C144 516 134 544 112 562
             C128 581 132 607 122 631
             C110 658 87 673 59 676 L0 671 Z

             M0 635
             C26 621 55 623 77 642
             C98 660 105 688 98 715
             C121 726 135 749 134 776
             C133 805 116 828 92 839
             C111 861 111 891 96 915
             C85 931 71 940 55 941 L0 941 Z"/>
  </g>
</svg>
